# xmcd
#
# Track frame offsets:
#	150
#	22210
#	39957
#	60232
#	84132
#	103750
#	124042
#	145607
#	168240
#	181825
#	206215
#	230275
#	246822
#	267332
#	290987
#	310330
#
# Disc length: 4377 seconds
#
# Revision: 1
# Processed by: cddbd v1.5.1PL0 Copyright (c) Steve Scherf et al.
# Submitted via: CDex 1.50Beta5
#
DISCID=db111710
DTITLE=モニカ - ラヴ・リング R&B
DYEAR=2002
DGENRE=
TTITLE0=モニカ/ビフォー・ユー・ウォーク・アウト・オブ・マイ・ライフ
TTITLE1=デスティニーズ・チャイルド/エモーション
TTITLE2=トニ・ブラクストン/熱い吐息
TTITLE3=エリック・ベネイ/アイル・ビー・ゼア
TTITLE4=ディアンジェロ/アンタイトルド(ハウ・ダズ・イット・フィール)
TTITLE5=アリーヤ/ワン・アイ・ゲイヴ・マイ・ハート・トゥ
TTITLE6=ミニー・リパートン/インサイド・マイ・ラヴ
TTITLE7=マリーナ・ショウ/フィール・ライク・メイキン・ラヴ
TTITLE8=ジャクソン5/さよならは言わないで
TTITLE9=アイズレー・ブラザーズ/(アット・ユア・ベスト)ユー・アー・ラヴ
TTITLE10=リンデン・デイビッド・ホール/ウォナ・ビー・アナザー・ユー
TTITLE11=タバレス/シーズ・ゴーン
TTITLE12=アフター7/レディ・オア・ノット
TTITLE13=メリサ・モーガン/ドゥ・ミー・ベイビー
TTITLE14=ダイアナ・ロス/追憶の涙
TTITLE15=アシュフォード&シンプソン/ハニー・アイ・ラヴ・ユー
EXTD=
EXTT0=
EXTT1=
EXTT2=
EXTT3=
EXTT4=
EXTT5=
EXTT6=
EXTT7=
EXTT8=
EXTT9=
EXTT10=
EXTT11=
EXTT12=
EXTT13=
EXTT14=
EXTT15=
PLAYORDER=
